<?xml version="1.0" encoding="utf-8"?>
<!-- Generator: Adobe Illustrator 22.1.0, SVG Export Plug-In . SVG Version: 6.00 Build 0)  -->
<svg version="1.1" id="Layer_1" xmlns="http://www.w3.org/2000/svg" xmlns:xlink="http://www.w3.org/1999/xlink" x="0px" y="0px"
	 viewBox="0 0 500 500" style="enable-background:new 0 0 500 500;" xml:space="preserve">
<style type="text/css">
	.st0{fill:#583487;}
	.st1{fill:#FFFFFF;}
</style>
<g id="XMLID_3453_">
	<g>
		<path id="XMLID_17_" class="st0" d="M352.3,41.3H147.7c-32.1,0-58.2,26.1-58.2,58.2v204.6c0,32.1,26.1,58.2,58.2,58.2h204.6
			c32.1,0,58.2-26.1,58.2-58.2V99.5C410.5,67.4,384.5,41.3,352.3,41.3z"/>
	</g>
</g>
<g id="XMLID_3410_">
	<g id="XMLID_3447_">
		<path class="st0" d="M352.3,56.3c23.9,0,43.3,19.4,43.3,43.3v204.6c0,23.9-19.4,43.3-43.3,43.3H147.7c-23.9,0-43.3-19.4-43.3-43.3
			V99.5c0-23.9,19.4-43.3,43.3-43.3H352.3 M352.3,41.3H147.7c-32.1,0-58.2,26.1-58.2,58.2v204.6c0,32.1,26.1,58.2,58.2,58.2h204.6
			c32.1,0,58.2-26.1,58.2-58.2V99.5C410.5,67.4,384.5,41.3,352.3,41.3L352.3,41.3z"/>
	</g>
</g>
<g id="XMLID_3408_">
	<path id="XMLID_3409_" class="st0" d="M250,462.1c-4.9,0-8.9-4-8.9-8.9v-94.9c0-4.9,4-8.9,8.9-8.9s8.9,4,8.9,8.9v94.9
		C258.9,458.2,254.9,462.1,250,462.1z"/>
</g>
<g>
	<polygon class="st1" points="291.3,169.6 299,177.3 306.8,169.4 298.9,161.6 291.3,169.2 283.6,161.5 275.8,169.4 283.7,177.2 	"/>
	<path class="st1" d="M359.3,204.8L359.3,204.8c-0.2-2-0.7-4-1.5-5.9s-1.7-3.6-3-5c-1.6-1.9-3.4-3.3-5.4-4.3c-2-1-4.2-1.5-6.6-1.5
		c-2.1,0-4,0.5-5.8,1.4c-1.8,0.9-3.5,2.3-4.9,4c-0.9,1.2-1.8,2.5-2.6,4c-0.8,1.4-1.5,2.9-2.3,4.3v0c-0.7,1.4-1.5,2.8-2.3,4.2
		c-0.8,1.4-1.7,2.7-2.8,3.8c-1,1.1-2.2,2.1-3.6,2.8c-1.3,0.7-2.9,1.1-4.7,1.1c0,0-0.1,0-0.1,0c-0.2,0-0.3,0-0.5,0
		c-1.1,0-2.3,0-3.8-0.1c-1.4-0.1-2.8-0.2-4.1-0.3c0.9-1.6,1.7-3.3,2.4-5.1c0.6-1.8,0.9-3.6,0.9-5.5c0-2.4-0.4-4.6-1.3-6.9
		c-0.9-2.2-2-4.2-3.5-6c-1.5-1.8-3.2-3.2-5.3-4.3c-2-1.1-4.2-1.7-6.6-1.8h-0.6c-2.2,0-4.3,0.5-6.3,1.6c-2.2,1.2-4.2,2.8-5.9,5
		c-1.5,1.9-2.7,4.1-3.6,6.5c-0.8,2.4-1.3,4.8-1.3,7.4c0.1,1,0.2,2,0.4,2.9c0.2,0.9,0.5,1.8,0.9,2.6c0.4,0.8,0.8,1.6,1.2,2.3
		c0.4,0.7,0.9,1.3,1.4,1.9c-0.3,0.1-0.5,0.1-0.6,0.1c-0.1,0-0.2,0-0.3,0c-0.1,0-0.2,0-0.3,0c-0.2,0-0.5,0-1,0c-0.5,0-1.1,0-1.6,0
		s-1.1,0-1.6,0h-2.8c-0.1,0-0.3,0-0.4,0c-0.1,0-0.3,0-0.4,0h-5.2c0.7-1.3,1.4-2.6,2-4c0.6-1.4,1-2.9,1.2-4.4c0-0.4,0-0.7,0-1
		c0-2-0.3-4-1-6c-0.8-2.3-2.1-4.4-3.9-6.3c-1.9-2-4.2-3.5-6.8-4.5c-2.6-1-5.4-1.5-8.3-1.5c-0.7,0-1.4,0-2.2,0.1
		c-0.8,0.1-1.6,0.2-2.4,0.3c-3.2,0.6-6.3,1.7-9.3,3.3s-5.8,3.6-8.5,6.1c-1.1,1.1-2.2,2.3-3.2,3.5c-1,1.3-2,2.5-2.9,3.8
		c-0.9,1.3-1.7,2.5-2.5,3.7c-0.7,1.2-1.4,2.2-1.9,3.1c-0.2-1.1-0.3-2.1-0.4-3.1c-0.1-0.7-0.1-1.4-0.1-2.1c0-0.3,0-0.6,0-0.9
		c0-1,0.1-2,0.4-3.1c0.2-1,0.5-2.1,1-3.3l-10.6-3.4c-0.8,3-1.4,5.4-2,7.3c-0.5,1.9-1,3.5-1.4,4.7c-0.4,1.2-0.8,2.2-1.1,2.9
		c-0.3,0.7-0.7,1.3-1.1,1.8c-0.7,0.9-1.5,1.7-2.5,2.1c-0.8,0.4-2.6,0.6-5.4,0.7h-0.3c-1.2,0-2.2-0.1-3-0.4s-1.4-0.7-2-1.3
		c-0.6-0.6-1-1.3-1.4-2.2c-0.4-0.9-0.9-1.9-1.3-3.1c-2.1-5-4-9.4-5.6-13.4s-3-7.3-4.2-10.2l-3.6-8.8l-11.9,5c1,2.5,2.1,5,3.3,7.7
		c1.2,2.7,2.4,5.4,3.6,8.1c1.2,2.7,2.4,5.4,3.6,8.1c1.2,2.7,2.3,5.3,3.3,7.8c-0.8,0.6-1.9,1.2-3.3,1.8c-0.4,0.2-0.9,0.3-1.3,0.4
		c-0.5,0.1-1,0.2-1.5,0.3c-0.5,0.1-1,0.1-1.5,0.1c-0.5,0-1,0-1.4,0c-0.9,0-1.8-0.1-2.9-0.2c-1-0.2-2.1-0.5-3.2-0.9
		c-1.1-0.4-2.3-1-3.6-1.8c-1.2-0.8-2.5-1.8-3.9-3l-7.3,10.4c2.9,3,6,5.2,9.4,6.5c3.4,1.4,6.9,2,10.4,2c2.3,0,4.4-0.1,6.3-0.4
		c1.9-0.3,3.6-0.7,5.3-1.4c1.1-0.4,2-0.9,2.8-1.3s1.6-0.9,2.3-1.4c0.7,0.7,1.4,1.3,2.2,1.8c0.8,0.6,1.7,1,2.6,1.4
		c1,0.4,2.1,0.7,3.4,0.9c1.2,0.2,2.7,0.3,4.3,0.3c0,0,0,0,0,0c0,0,0,0,0,0c0,0,0,0,0,0c0,0,0,0,0,0c4.5,0,8.2-0.7,11.2-2.2
		c0.4-0.2,0.9-0.5,1.5-0.8c0.5-0.3,1.1-0.7,1.6-1.2c0.5-0.4,1-0.9,1.4-1.4c0.4-0.5,0.7-1,0.9-1.5c1.5,1.9,3.1,3.5,4.9,4.5
		c1.7,1.1,3.6,1.8,5.6,2.3c2,0.5,4,0.8,6.2,0.9c2.2,0.1,4.5,0.1,6.8,0.1c1.2,0,2.6,0,4-0.1c1.4-0.1,2.8-0.1,4.3-0.3
		c1.4-0.1,2.9-0.3,4.4-0.5c1.5-0.2,2.9-0.5,4.3-0.9c0.6,0.2,1.3,0.4,2,0.6c0.7,0.1,1.5,0.3,2.4,0.3c0.9,0.1,1.9,0.1,3,0.1
		c1.1,0,2.4,0,3.8,0l10.2,0c0.1,0,0.3,0,0.4,0c0.1,0,0.3,0,0.4,0h0.3c1.9,0,3.9-0.1,6-0.2c2.1-0.1,4.2-0.3,6.1-0.6
		c2-0.3,3.8-0.6,5.5-1c1.7-0.4,3-0.9,4-1.5c1.6,0.8,3.2,1.4,4.7,1.7c1.5,0.4,3,0.6,4.4,0.9c0.8,0.1,1.7,0.2,2.7,0.3
		c1,0.1,2,0.2,3,0.2s2.1,0.1,3.1,0.1c1,0,2,0.1,2.8,0.1h0.4c0.1,0,0.2,0,0.3,0c0.1,0,0.2,0,0.3,0c1.6,0,3.1-0.2,4.4-0.5
		c1.4-0.3,2.6-0.8,3.8-1.3c1.2-0.6,2.3-1.3,3.4-2.1s2.2-1.7,3.2-2.7c0.6,0.4,1.3,0.8,2,1.3c0.7,0.4,1.5,0.9,2.2,1.3
		c0.7,0.4,1.5,0.8,2.1,1.1c0.7,0.3,1.3,0.6,1.8,0.9c1.3,0.5,2.7,0.9,4,1.2c1.4,0.3,2.7,0.4,3.9,0.4c0.7,0,1.4,0,2-0.1
		c0.6-0.1,1.3-0.2,1.9-0.4c1.9-0.6,3.8-1.6,5.4-3.1c1.7-1.5,2.9-3.4,3.8-5.7c0.5-1.2,0.8-2.6,1.1-4c0.3-1.4,0.4-2.8,0.4-4.3
		C359.5,207.1,359.4,205.9,359.3,204.8z M255.1,207.7c-0.8,0.9-1.9,1.8-3.1,2.5c-1.2,0.7-2.6,1.3-4.2,1.8c-1.6,0.5-3.3,0.9-5,1.2
		c-1.8,0.3-3.6,0.5-5.5,0.7c-1.9,0.1-3.7,0.2-5.5,0.2c-1.1,0-2.3,0-3.7-0.1c-1.3-0.1-2.5-0.1-3.6-0.2c0.4-0.6,0.9-1.4,1.5-2.2
		c0.6-0.8,1.2-1.6,1.9-2.4c0.7-0.8,1.4-1.7,2.2-2.5c0.8-0.8,1.5-1.6,2.3-2.4c0.9-0.8,2-1.6,3.2-2.3c1.2-0.7,2.5-1.3,3.8-1.8
		c1.3-0.5,2.6-0.9,4-1.2c1.3-0.3,2.6-0.4,3.9-0.4c1,0,2,0.1,3,0.4c1,0.3,2,0.7,2.9,1.2c0.9,0.5,1.7,1.1,2.3,1.8
		c0.6,0.7,1.1,1.6,1.2,2.5C256.4,205.6,255.9,206.7,255.1,207.7z M297.4,205.5c-0.4,0.8-0.8,1.5-1.4,2.3c-0.6,0.7-1.2,1.4-1.9,2.1
		c-0.7,0.7-1.4,1.2-2.1,1.6c-0.9-0.3-1.8-0.7-2.6-1.4c-0.9-0.6-1.6-1.3-2.3-2.1c-0.7-0.7-1.2-1.5-1.6-2.2c-0.4-0.7-0.6-1.3-0.6-1.7
		c0-1.2,0.2-2.3,0.7-3.2c0.5-0.9,1.1-1.7,1.8-2.3c0.7-0.6,1.5-1.1,2.3-1.5c0.8-0.4,1.5-0.6,2.1-0.7c0.6,0.2,1.2,0.5,1.9,0.9
		c0.7,0.4,1.4,0.9,2,1.6c0.6,0.6,1.1,1.3,1.5,2.1c0.4,0.8,0.6,1.6,0.6,2.5C297.9,204,297.7,204.7,297.4,205.5z M349.7,212.3
		c-0.3,0.8-0.7,1.2-1,1.3c-0.1,0-0.3,0-0.4,0.1c-0.1,0-0.2,0-0.3,0c-0.5,0-1.2-0.1-2.2-0.4c-1-0.3-2-0.6-3.1-1
		c-1.1-0.4-2.3-0.9-3.4-1.4c-1.2-0.5-2.1-1-3-1.6l1.3-2.6v0c1.1-2.1,2-3.7,2.6-4.8c0.6-1.1,1.1-1.6,1.5-1.6c1.1,0,2.1,0.3,3.1,0.9
		c1,0.6,1.9,1.4,2.7,2.3c0.8,0.9,1.4,1.9,1.9,2.9s0.7,2,0.7,2.9c0,0.3,0,0.5,0,0.8C350.1,211,349.9,211.8,349.7,212.3z"/>
</g>
</svg>
