<?xml version="1.0" encoding="utf-8"?>
<!-- Generator: Adobe Illustrator 19.0.0, SVG Export Plug-In . SVG Version: 6.00 Build 0)  -->
<svg version="1.1" id="Layer_1" xmlns="http://www.w3.org/2000/svg" xmlns:xlink="http://www.w3.org/1999/xlink" x="0px" y="0px"
	 viewBox="0 0 32 32" style="enable-background:new 0 0 32 32;" xml:space="preserve">
<style type="text/css">
	.st0{fill:#FFFFFF;}
	.st1{fill:#583487;}
	.st2{fill:#E8553E;}
</style>
<g id="XMLID_17870_">
	<g id="XMLID_17871_">
		<g id="XMLID_26948_">
			<circle id="XMLID_97_" class="st0" cx="16.1" cy="11.2" r="9.2"/>
		</g>
		<g id="XMLID_17872_">
			<path id="XMLID_133_" class="st1" d="M15.2,0c-5.4,0.4-9.7,4.8-10,10.2C5,14,6.8,17.4,9.6,19.5c3.8,2.8,5.9,7.3,5.9,12v0
				c0,0.3,0.2,0.5,0.5,0.5c0.3,0,0.5-0.2,0.5-0.5v0c0-4.8,2.3-9.2,6.1-12.1c2.6-2,4.2-5.1,4.2-8.6C26.8,4.6,21.5-0.4,15.2,0z
				 M7.6,10.8c0-4.7,3.8-8.4,8.4-8.4s8.4,3.8,8.4,8.4c0,4.7-3.8,8.4-8.4,8.4S7.6,15.5,7.6,10.8z M16,0.9C16,0.9,16,0.9,16,0.9
				L16,0.9C16,0.9,16,0.9,16,0.9z M15.9,20.6C15.9,20.6,16,20.6,15.9,20.6c0.1,0,0.2,0,0.2,0C16.1,20.6,16,20.6,15.9,20.6
				C16,20.6,15.9,20.6,15.9,20.6z"/>
		</g>
	</g>
	<g id="XMLID_17877_">
		<g id="XMLID_17878_">
			<path id="XMLID_96_" class="st2" d="M19.9,7.6c-0.2-0.1-0.4-0.1-0.6,0.2C19.2,7.9,19.1,8,19,8.2c-0.1,0.3-0.2,0.5-0.4,0.8
				c-0.1,0.2-0.3,0.2-0.5,0c0-0.1-0.1-0.2-0.1-0.2c0.1-0.4,0.1-0.8,0.2-1.3C18.4,7,18.5,6.5,18.6,6c0-0.3-0.1-0.5-0.3-0.6
				c-0.4-0.2-0.8,0-0.9,0.5c-0.1,0.7-0.2,1.4-0.3,2.1c0,0.2-0.1,0.4-0.2,0.6c0,0.1-0.1,0.1-0.2,0.1c-0.1,0-0.1-0.1-0.2-0.2
				c0-0.1-0.1-0.3-0.1-0.4c0-0.5,0-1,0-1.5c0-0.4,0-0.7,0-1.1c0-0.2,0-0.5-0.3-0.6c-0.5-0.3-1,0.1-1,0.6c0,1,0,1.9,0,2.9
				c0,0.1,0,0.2,0,0.3c0,0.1-0.1,0.2-0.1,0.2c-0.1,0-0.1-0.1-0.2-0.1c-0.1-0.1-0.1-0.2-0.1-0.2c-0.3-0.7-0.6-1.3-0.8-2
				c-0.1-0.3-0.5-0.5-0.8-0.4c-0.3,0.1-0.5,0.5-0.3,0.8c0.3,0.8,0.6,1.5,0.9,2.3c0.1,0.3,0.2,0.7,0.3,1c0,0.1,0,0.2,0,0.3
				c-0.1,0-0.2,0-0.3-0.1c-0.1-0.1-0.3-0.2-0.4-0.4c-0.2-0.2-0.5-0.5-0.7-0.6c-0.2-0.2-0.5-0.1-0.7,0.1c-0.2,0.2-0.2,0.4,0,0.7
				c0.5,0.7,1.1,1.4,1.6,2.1c0.3,0.4,0.6,0.7,0.8,1.1c0.1,0.1,0.2,0.2,0.3,0.2c0.6,0,1.1,0,1.7,0c0.6,0,1.2,0,1.7,0
				c0.1,0,0.2-0.1,0.3-0.2c0.1-0.3,0.3-0.7,0.4-1c0.4-1.1,0.8-2.3,1.3-3.4c0.1-0.3,0.2-0.6,0.3-0.9C20.2,7.9,20.1,7.6,19.9,7.6z"/>
		</g>
	</g>
	<g id="XMLID_26939_">
		<path id="XMLID_95_" class="st2" d="M17.9,17.5h-3.3c-0.3,0-0.5-0.2-0.5-0.5v-2.2c0-0.4,0.3-0.7,0.7-0.7h2.9
			c0.4,0,0.7,0.3,0.7,0.7V17C18.4,17.3,18.2,17.5,17.9,17.5z"/>
	</g>
</g>
</svg>
